<?xml version="1.0" encoding="utf-8"?>
<!-- Generator: Adobe Illustrator 27.5.0, SVG Export Plug-In . SVG Version: 6.00 Build 0)  -->
<svg version="1.1" xmlns="http://www.w3.org/2000/svg" xmlns:xlink="http://www.w3.org/1999/xlink" x="0px" y="0px"
	 viewBox="0 0 1200 800" style="enable-background:new 0 0 1200 800;" xml:space="preserve">
<g id="Background">
	<g>
		<rect style="fill:#874835;" width="1200" height="800"/>
		<rect style="fill:#CE7852;" width="1200" height="337.116"/>
	</g>
</g>
<g id="Graphic_Elements">
	<g>
		<path style="fill:#FFEFCF;" d="M601.799,27.683c-205.316,0-371.757,166.442-371.757,371.758h743.515
			C973.557,194.125,807.115,27.683,601.799,27.683z"/>
		<g>
			<defs>
				<path id="SVGID_1_" d="M973.557,400.559c0,205.316-166.442,371.758-371.758,371.758S230.041,605.875,230.041,400.559H973.557z"
					/>
			</defs>
			<clipPath id="SVGID_00000152950691958464279800000005739255639760003764_">
				<use xlink:href="#SVGID_1_"  style="overflow:visible;"/>
			</clipPath>
			<g style="clip-path:url(#SVGID_00000152950691958464279800000005739255639760003764_);">
				
					<line style="fill:none;stroke:#FCD2AE;stroke-width:14.8022;stroke-miterlimit:10;" x1="60.536" y1="413.149" x2="1143.062" y2="413.149"/>
				
					<line style="fill:none;stroke:#FCD2AE;stroke-width:13.9696;stroke-miterlimit:10;" x1="60.536" y1="435.138" x2="1143.062" y2="435.138"/>
				
					<line style="fill:none;stroke:#FCD2AE;stroke-width:13.137;stroke-miterlimit:10;" x1="60.536" y1="457.127" x2="1143.062" y2="457.127"/>
				
					<line style="fill:none;stroke:#FCD2AE;stroke-width:12.3044;stroke-miterlimit:10;" x1="60.536" y1="479.116" x2="1143.062" y2="479.116"/>
				
					<line style="fill:none;stroke:#FCD2AE;stroke-width:11.4717;stroke-miterlimit:10;" x1="60.536" y1="501.105" x2="1143.062" y2="501.105"/>
				
					<line style="fill:none;stroke:#FCD2AE;stroke-width:10.6391;stroke-miterlimit:10;" x1="60.536" y1="523.094" x2="1143.062" y2="523.094"/>
				
					<line style="fill:none;stroke:#FCD2AE;stroke-width:9.8065;stroke-miterlimit:10;" x1="60.536" y1="545.083" x2="1143.062" y2="545.083"/>
				
					<line style="fill:none;stroke:#FCD2AE;stroke-width:8.9739;stroke-miterlimit:10;" x1="60.536" y1="567.073" x2="1143.062" y2="567.073"/>
				
					<line style="fill:none;stroke:#FCD2AE;stroke-width:8.1412;stroke-miterlimit:10;" x1="60.536" y1="589.062" x2="1143.062" y2="589.062"/>
				
					<line style="fill:none;stroke:#FCD2AE;stroke-width:7.3086;stroke-miterlimit:10;" x1="60.536" y1="611.051" x2="1143.062" y2="611.051"/>
				
					<line style="fill:none;stroke:#FCD2AE;stroke-width:6.476;stroke-miterlimit:10;" x1="60.536" y1="633.04" x2="1143.062" y2="633.04"/>
				
					<line style="fill:none;stroke:#FCD2AE;stroke-width:5.6434;stroke-miterlimit:10;" x1="60.536" y1="655.029" x2="1143.062" y2="655.029"/>
				
					<line style="fill:none;stroke:#FCD2AE;stroke-width:4.8107;stroke-miterlimit:10;" x1="60.536" y1="677.018" x2="1143.062" y2="677.018"/>
				
					<line style="fill:none;stroke:#FCD2AE;stroke-width:3.9781;stroke-miterlimit:10;" x1="60.536" y1="699.007" x2="1143.062" y2="699.007"/>
				
					<line style="fill:none;stroke:#FCD2AE;stroke-width:3.1455;stroke-miterlimit:10;" x1="60.536" y1="720.996" x2="1143.062" y2="720.996"/>
				
					<line style="fill:none;stroke:#FCD2AE;stroke-width:2.3128;stroke-miterlimit:10;" x1="60.536" y1="742.985" x2="1143.062" y2="742.985"/>
				
					<line style="fill:none;stroke:#FCD2AE;stroke-width:1.4802;stroke-miterlimit:10;" x1="60.536" y1="764.974" x2="1143.062" y2="764.974"/>
			</g>
		</g>
	</g>
</g>
</svg>
