<?xml version="1.0" encoding="utf-8"?>
<!-- Generator: Adobe Illustrator 27.5.0, SVG Export Plug-In . SVG Version: 6.00 Build 0)  -->
<svg version="1.1" xmlns="http://www.w3.org/2000/svg" xmlns:xlink="http://www.w3.org/1999/xlink" x="0px" y="0px"
	 viewBox="0 0 500 500" style="enable-background:new 0 0 500 500;" xml:space="preserve">
<g id="Background">
	<rect style="fill:#FFFFFF;" width="500" height="500"/>
</g>
<g id="Objects">
	<g>
		<path style="fill:#6F7082;" d="M158.593,70.99L158.593,70.99c-2.691-0.849-3.075-4.499-0.619-5.888v0
			c3.061-1.732,1.539-6.415-1.955-6.017c-2.804,0.319-4.639-2.859-2.96-5.127c2.092-2.827-1.203-6.486-4.233-4.701l0,0
			c-2.431,1.432-5.4-0.725-4.79-3.48l0,0c0.761-3.433-3.737-5.436-5.779-2.573l0,0c-1.639,2.297-5.229,1.534-5.791-1.231l0,0
			c-0.701-3.446-5.625-3.446-6.326,0l0,0c-0.563,2.765-4.153,3.528-5.791,1.231l0,0c-2.042-2.863-6.541-0.86-5.779,2.573l0,0
			c0.611,2.755-2.358,4.912-4.79,3.48c-3.03-1.785-6.325,1.875-4.233,4.701l0,0c1.678,2.268-0.157,5.447-2.96,5.127l0,0
			c-3.494-0.398-5.016,4.285-1.955,6.017v0c2.456,1.389,2.072,5.039-0.619,5.888l0,0c-3.354,1.058-2.839,5.955,0.661,6.292l0,0
			c2.809,0.271,3.943,3.761,1.83,5.631c-2.634,2.33-0.172,6.595,3.163,5.479l0,0c2.676-0.895,5.132,1.832,3.962,4.4l0,0
			c-1.458,3.2,2.526,6.094,5.118,3.719l0,0c2.08-1.906,5.433-0.414,5.409,2.408l0,0c-0.031,3.517,4.786,4.54,6.188,1.316
			c1.125-2.588,4.795-2.588,5.921,0c1.402,3.225,6.219,2.201,6.188-1.316l0,0c-0.025-2.822,3.328-4.314,5.409-2.408l0,0
			c2.593,2.376,6.576-0.519,5.118-3.719l0,0c-1.17-2.568,1.286-5.295,3.962-4.4l0,0c3.335,1.116,5.797-3.149,3.163-5.479l0,0
			c-2.113-1.87-0.979-5.36,1.83-5.631l0,0C161.432,76.945,161.947,72.047,158.593,70.99z M129.302,89.192
			c-10.167,0-18.409-8.242-18.409-18.409c0-10.167,8.242-18.409,18.409-18.409c10.167,0,18.409,8.242,18.409,18.409
			C147.711,80.95,139.469,89.192,129.302,89.192z"/>
		<path style="fill:#42444F;" d="M141.288,356.572c0.146-0.761,0.22-1.547,0.22-2.351c0-0.804-0.074-1.59-0.22-2.353h-4.087
			c-0.186-0.656-0.445-1.28-0.77-1.861l2.888-2.888c-0.889-1.307-2.019-2.436-3.325-3.328l-2.89,2.89
			c-0.582-0.326-1.206-0.586-1.861-0.77v-4.089c-0.761-0.146-1.547-0.22-2.351-0.22c-0.804,0-1.59,0.074-2.353,0.22v4.089
			c-0.656,0.184-1.278,0.445-1.861,0.77l-2.89-2.89c-1.307,0.892-2.436,2.021-3.323,3.328l2.888,2.888
			c-0.326,0.582-0.586,1.206-0.77,1.861h-4.087c-0.146,0.764-0.22,1.549-0.22,2.353c0,0.804,0.074,1.59,0.22,2.351h4.087
			c0.184,0.656,0.445,1.28,0.77,1.861l-2.888,2.888c0.887,1.307,2.016,2.436,3.323,3.328l2.89-2.89
			c0.584,0.326,1.206,0.586,1.861,0.772v4.087c0.763,0.146,1.549,0.22,2.353,0.22c0.804,0,1.59-0.074,2.351-0.22v-4.087
			c0.656-0.186,1.28-0.447,1.861-0.772l2.89,2.89c1.307-0.889,2.436-2.019,3.325-3.325l-2.888-2.89
			c0.326-0.582,0.584-1.206,0.77-1.861H141.288z M128.891,356.766c-1.406,0-2.546-1.14-2.546-2.546c0-1.406,1.14-2.546,2.546-2.546
			c1.406,0,2.546,1.14,2.546,2.546C131.437,355.626,130.297,356.766,128.891,356.766z"/>
		<path style="fill:none;stroke:#6F7082;stroke-width:2.0664;stroke-miterlimit:10;" d="M248.9,411.148v-1.87
			c0-1.703,1.381-3.083,3.083-3.083h17.187c1.703,0,3.083-1.38,3.083-3.083l0,0c0-1.703-1.381-3.083-3.083-3.083h-41.753
			c-1.703,0-3.084-1.38-3.084-3.083v-0.506c0-1.703,1.381-3.083,3.084-3.083h18.096c1.703,0,3.083-1.38,3.083-3.083v-2.78"/>
		<g>
			<path style="fill:#6F7082;" d="M342.446,121.879v258.17c0,4.079-3.306,7.385-7.385,7.385H161.966
				c-4.079,0-7.385-3.306-7.385-7.385v-258.17c0-4.078,3.306-7.385,7.385-7.385h173.095
				C339.139,114.495,342.446,117.801,342.446,121.879z"/>
			<path style="fill:#42444F;" d="M342.446,121.879v6.029H154.581v-6.029c0-4.078,3.306-7.385,7.385-7.385h173.095
				C339.139,114.495,342.446,117.801,342.446,121.879z"/>
			<path style="fill:#42444F;" d="M342.446,375.245v4.804c0,4.079-3.306,7.385-7.385,7.385H161.966
				c-4.079,0-7.385-3.306-7.385-7.385v-4.804H342.446z"/>
			<g>
				<path style="fill:#34909D;" d="M330.664,121.74c0,1.232,0.998,2.23,2.23,2.23c1.232,0,2.23-0.998,2.23-2.23
					c0-1.232-0.999-2.23-2.23-2.23C331.662,119.51,330.664,120.508,330.664,121.74z"/>
				<path style="fill:#E76700;" d="M322.866,121.74c0,1.232,0.999,2.23,2.23,2.23c1.232,0,2.23-0.998,2.23-2.23
					c0-1.232-0.998-2.23-2.23-2.23C323.864,119.51,322.866,120.508,322.866,121.74z"/>
				<path style="fill:#BA0034;" d="M315.068,121.74c0,1.232,0.999,2.23,2.23,2.23c1.232,0,2.23-0.998,2.23-2.23
					c0-1.232-0.998-2.23-2.23-2.23C316.067,119.51,315.068,120.508,315.068,121.74z"/>
			</g>
			<path style="fill:#42444F;" d="M334.689,203.584H162.339c-2.703,0-4.894-2.191-4.894-4.894v-63.13
				c0-2.703,2.191-4.894,4.894-4.894h172.349c2.703,0,4.894,2.191,4.894,4.894v63.13
				C339.583,201.393,337.392,203.584,334.689,203.584z"/>
			<path style="fill:#35363B;" d="M212.85,215.508v34.769c0,1.712-0.986,3.207-2.416,3.922c-0.596,0.314-1.257,0.477-1.972,0.477
				h-41.389c-2.427,0-4.388-1.972-4.388-4.399v-34.769c0-0.715,0.163-1.376,0.477-1.972c0.715-1.43,2.199-2.416,3.911-2.416h41.389
				C210.879,211.119,212.85,213.081,212.85,215.508z"/>
			<path style="fill:#42444F;" d="M210.911,217.447v34.78c0,0.704-0.173,1.376-0.477,1.972c-0.596,0.314-1.257,0.477-1.972,0.477
				h-41.389c-2.427,0-4.388-1.972-4.388-4.399v-34.769c0-0.715,0.163-1.376,0.477-1.972c0.596-0.314,1.257-0.477,1.972-0.477h41.378
				C208.939,213.059,210.911,215.02,210.911,217.447z"/>
			<rect x="217.673" y="211.118" style="fill:#FFFFFF;" width="117.451" height="3.309"/>
			<rect x="217.673" y="219.203" style="fill:#FFFFFF;" width="117.451" height="3.309"/>
			<rect x="217.673" y="227.287" style="fill:#FFFFFF;" width="117.451" height="3.309"/>
			<rect x="217.673" y="235.372" style="fill:#FFFFFF;" width="117.451" height="3.309"/>
			<g>
				<path style="fill:#35363B;" d="M331.455,254.671h-26.927c-2.018,0-3.669-1.651-3.669-3.669l0,0c0-2.018,1.651-3.669,3.669-3.669
					h26.927c2.018,0,3.669,1.651,3.669,3.669l0,0C335.124,253.02,333.473,254.671,331.455,254.671z"/>
				<path style="fill:#E6EAF0;" d="M324.046,252.657h-12.109c-0.914,0-1.655-0.741-1.655-1.655l0,0c0-0.914,0.741-1.655,1.655-1.655
					h12.109c0.914,0,1.655,0.741,1.655,1.655l0,0C325.701,251.916,324.96,252.657,324.046,252.657z"/>
			</g>
			<g>
				<g>
					<rect x="162.682" y="269.555" style="fill:#35363B;" width="18.488" height="18.488"/>
					<rect x="162.682" y="289.915" style="fill:#35363B;" width="18.488" height="1.898"/>
					<rect x="162.682" y="293.685" style="fill:#35363B;" width="18.488" height="1.898"/>
					<rect x="162.682" y="297.455" style="fill:#35363B;" width="12.268" height="1.898"/>
				</g>
				<g>
					<rect x="188.341" y="269.555" style="fill:#35363B;" width="18.488" height="18.488"/>
					<rect x="188.341" y="289.915" style="fill:#35363B;" width="18.488" height="1.898"/>
					<rect x="188.341" y="293.685" style="fill:#35363B;" width="18.488" height="1.898"/>
					<rect x="188.341" y="297.455" style="fill:#35363B;" width="12.268" height="1.898"/>
				</g>
				<g>
					<rect x="214" y="269.555" style="fill:#35363B;" width="18.488" height="18.488"/>
					<rect x="214" y="289.915" style="fill:#35363B;" width="18.488" height="1.898"/>
					<rect x="214" y="293.685" style="fill:#35363B;" width="18.488" height="1.898"/>
					<rect x="214" y="297.455" style="fill:#35363B;" width="12.268" height="1.898"/>
				</g>
				<g>
					<rect x="239.659" y="269.555" style="fill:#35363B;" width="18.488" height="18.488"/>
					<rect x="239.659" y="289.915" style="fill:#35363B;" width="18.488" height="1.898"/>
					<rect x="239.659" y="293.685" style="fill:#35363B;" width="18.488" height="1.898"/>
					<rect x="239.659" y="297.455" style="fill:#35363B;" width="12.268" height="1.898"/>
				</g>
				<g>
					<rect x="265.318" y="269.555" style="fill:#35363B;" width="18.488" height="18.488"/>
					<rect x="265.318" y="289.915" style="fill:#35363B;" width="18.488" height="1.898"/>
					<rect x="265.318" y="293.685" style="fill:#35363B;" width="18.488" height="1.898"/>
					<rect x="265.318" y="297.455" style="fill:#35363B;" width="12.268" height="1.898"/>
				</g>
				<g>
					<rect x="290.977" y="269.555" style="fill:#35363B;" width="18.488" height="18.488"/>
					<rect x="290.977" y="289.915" style="fill:#35363B;" width="18.488" height="1.898"/>
					<rect x="290.977" y="293.685" style="fill:#35363B;" width="18.488" height="1.898"/>
					<rect x="290.977" y="297.455" style="fill:#35363B;" width="12.268" height="1.898"/>
				</g>
				<g>
					<rect x="316.636" y="269.555" style="fill:#35363B;" width="18.488" height="18.488"/>
					<rect x="316.636" y="289.915" style="fill:#35363B;" width="18.488" height="1.898"/>
					<rect x="316.636" y="293.685" style="fill:#35363B;" width="18.488" height="1.898"/>
					<rect x="316.636" y="297.455" style="fill:#35363B;" width="12.268" height="1.898"/>
				</g>
			</g>
			<g>
				<g>
					<polygon style="fill:#FFFFFF;" points="162.682,168.146 169.754,175.217 169.754,161.074 					"/>
				</g>
				<polygon style="fill:#FFFFFF;" points="328.052,161.074 328.052,175.217 335.124,168.146 				"/>
			</g>
			<g>
				<circle style="fill:#FFFFFF;" cx="237.379" cy="200.829" r="1.285"/>
				<path style="fill:#6F7082;" d="M244.231,200.829c0,0.71-0.575,1.285-1.285,1.285c-0.71,0-1.285-0.575-1.285-1.285
					c0-0.71,0.575-1.285,1.285-1.285C243.656,199.544,244.231,200.119,244.231,200.829z"/>
				<path style="fill:#FFFFFF;" d="M249.799,200.829c0,0.71-0.575,1.285-1.285,1.285c-0.71,0-1.285-0.575-1.285-1.285
					c0-0.71,0.575-1.285,1.285-1.285C249.224,199.544,249.799,200.119,249.799,200.829z"/>
				<circle style="fill:#FFFFFF;" cx="254.082" cy="200.829" r="1.285"/>
				<circle style="fill:#FFFFFF;" cx="259.649" cy="200.829" r="1.285"/>
			</g>
			
				<line style="fill:none;stroke:#35363B;stroke-width:1.0835;stroke-miterlimit:10;" x1="162.682" y1="308.238" x2="335.124" y2="308.238"/>
			
				<line style="fill:none;stroke:#35363B;stroke-width:1.0835;stroke-miterlimit:10;" x1="162.682" y1="262.113" x2="335.124" y2="262.113"/>
			<g>
				<path style="fill:#FFFFFF;" d="M232.366,336.445h-60.388c-5.134,0-9.296-4.162-9.296-9.296l0,0c0-5.134,4.162-9.296,9.296-9.296
					h60.388c5.134,0,9.296,4.162,9.296,9.296l0,0C241.661,332.284,237.5,336.445,232.366,336.445z"/>
				<path style="fill:#FFFFFF;" d="M325.828,336.445h-62.451c-5.134,0-9.296-4.162-9.296-9.296l0,0c0-5.134,4.162-9.296,9.296-9.296
					h62.451c5.134,0,9.296,4.162,9.296,9.296l0,0C335.124,332.284,330.962,336.445,325.828,336.445z"/>
			</g>
			<g>
				<path style="fill:#FFFFFF;" d="M232.366,359.817h-60.388c-5.134,0-9.296-4.162-9.296-9.296l0,0c0-5.134,4.162-9.296,9.296-9.296
					h60.388c5.134,0,9.296,4.162,9.296,9.296l0,0C241.661,355.655,237.5,359.817,232.366,359.817z"/>
				<path style="fill:#FFFFFF;" d="M325.828,359.817h-62.451c-5.134,0-9.296-4.162-9.296-9.296l0,0c0-5.134,4.162-9.296,9.296-9.296
					h62.451c5.134,0,9.296,4.162,9.296,9.296l0,0C335.124,355.655,330.962,359.817,325.828,359.817z"/>
			</g>
		</g>
		<g>
			<path style="fill:#6F7082;" d="M401.877,111.147l-4.273-1.347c-0.947-0.299-1.082-1.583-0.218-2.073l3.899-2.206
				c1.077-0.609,0.542-2.258-0.688-2.118l-4.451,0.507c-0.987,0.112-1.633-1.007-1.042-1.805l2.665-3.601
				c0.736-0.995-0.423-2.283-1.49-1.655l-3.86,2.274c-0.856,0.504-1.901-0.255-1.686-1.225l0.97-4.374
				c0.268-1.209-1.316-1.914-2.034-0.906l-2.602,3.647c-0.577,0.809-1.841,0.54-2.039-0.433l-0.893-4.39
				c-0.247-1.213-1.98-1.213-2.227,0l-0.893,4.39c-0.198,0.973-1.462,1.242-2.039,0.433l-2.602-3.647
				c-0.719-1.008-2.302-0.303-2.034,0.906l0.97,4.374c0.215,0.97-0.83,1.729-1.686,1.225l-3.86-2.274
				c-1.067-0.628-2.227,0.66-1.49,1.655l2.665,3.601c0.591,0.799-0.055,1.918-1.042,1.805l-4.451-0.507
				c-1.23-0.14-1.766,1.508-0.688,2.118l3.899,2.206c0.865,0.489,0.73,1.774-0.218,2.073l-4.273,1.347
				c-1.181,0.372-0.999,2.096,0.233,2.215l4.46,0.429c0.989,0.095,1.388,1.324,0.644,1.982l-3.355,2.969
				c-0.927,0.82-0.061,2.321,1.113,1.929l4.249-1.422c0.942-0.315,1.806,0.645,1.395,1.549l-1.858,4.077
				c-0.513,1.126,0.889,2.145,1.802,1.309l3.303-3.027c0.732-0.671,1.913-0.146,1.904,0.848l-0.039,4.48
				c-0.011,1.238,1.685,1.598,2.178,0.463l1.786-4.108c0.396-0.911,1.688-0.911,2.084,0l1.786,4.108
				c0.494,1.135,2.189,0.775,2.178-0.463l-0.039-4.48c-0.009-0.993,1.172-1.519,1.904-0.848l3.303,3.027
				c0.913,0.836,2.315-0.183,1.802-1.309l-1.858-4.077c-0.412-0.904,0.453-1.864,1.394-1.549l4.249,1.422
				c1.174,0.393,2.041-1.108,1.114-1.929l-3.355-2.969c-0.744-0.658-0.345-1.887,0.644-1.982l4.46-0.429
				C402.876,113.243,403.057,111.519,401.877,111.147z M383.02,117.294c-4.033,0-7.302-3.269-7.302-7.302s3.269-7.302,7.302-7.302
				c4.033,0,7.302,3.269,7.302,7.302S387.052,117.294,383.02,117.294z"/>
			<path style="fill:#35363B;" d="M399.121,138.75l-2.338-0.737c-0.518-0.164-0.592-0.867-0.119-1.134l2.134-1.207
				c0.59-0.334,0.297-1.236-0.377-1.159l-2.436,0.277c-0.54,0.062-0.894-0.551-0.57-0.988l1.458-1.971
				c0.403-0.545-0.232-1.25-0.815-0.906l-2.112,1.244c-0.468,0.276-1.04-0.14-0.923-0.671l0.531-2.394
				c0.147-0.661-0.72-1.047-1.113-0.496l-1.424,1.996c-0.316,0.443-1.007,0.296-1.116-0.237l-0.489-2.402
				c-0.135-0.664-1.084-0.664-1.219,0l-0.489,2.402c-0.108,0.533-0.8,0.68-1.116,0.237l-1.424-1.996
				c-0.393-0.552-1.26-0.166-1.113,0.496l0.531,2.394c0.118,0.531-0.454,0.946-0.923,0.671l-2.112-1.244
				c-0.584-0.344-1.218,0.361-0.815,0.906l1.458,1.971c0.323,0.437-0.03,1.049-0.57,0.988l-2.436-0.277
				c-0.673-0.077-0.966,0.826-0.377,1.159l2.134,1.207c0.473,0.268,0.399,0.971-0.119,1.134l-2.338,0.737
				c-0.646,0.204-0.547,1.147,0.127,1.212l2.44,0.235c0.541,0.052,0.76,0.725,0.352,1.085l-1.836,1.625
				c-0.507,0.449-0.033,1.27,0.609,1.055l2.325-0.778c0.516-0.172,0.989,0.353,0.763,0.848l-1.017,2.231
				c-0.281,0.616,0.486,1.174,0.986,0.716l1.808-1.656c0.401-0.367,1.047-0.08,1.042,0.464l-0.021,2.452
				c-0.006,0.677,0.922,0.875,1.192,0.253l0.978-2.248c0.217-0.498,0.924-0.498,1.141,0l0.978,2.248
				c0.27,0.621,1.198,0.424,1.192-0.253l-0.021-2.452c-0.005-0.544,0.641-0.831,1.042-0.464l1.808,1.656
				c0.499,0.458,1.267-0.1,0.986-0.716l-1.017-2.231c-0.225-0.495,0.248-1.02,0.763-0.848l2.325,0.778
				c0.642,0.215,1.117-0.606,0.609-1.055l-1.836-1.625c-0.407-0.36-0.189-1.033,0.352-1.085l2.44-0.235
				C399.668,139.897,399.767,138.954,399.121,138.75z M388.802,142.114c-2.207,0-3.996-1.789-3.996-3.996
				c0-2.207,1.789-3.996,3.996-3.996c2.207,0,3.996,1.789,3.996,3.996C392.798,140.325,391.009,142.114,388.802,142.114z"/>
		</g>
		<g>
			<g>
				<rect x="83.239" y="283.166" style="fill:#CCD0D6;" width="37.013" height="48.299"/>
				<rect x="75.537" y="275.464" style="fill:#DBDFE6;" width="37.013" height="48.299"/>
				<rect x="67.315" y="267.242" style="fill:#42444F;" width="37.013" height="48.299"/>
			</g>
			<polygon style="opacity:0.26;fill:#35363B;" points="120.252,305.687 67.317,305.687 67.317,306.258 120.252,308.246 			"/>
			<rect x="65.508" y="299.045" style="fill:#FFFFFF;" width="55.73" height="6.642"/>
		</g>
		<g>
			
				<rect x="360.472" y="203.101" transform="matrix(0.9844 -0.1758 0.1758 0.9844 -31.3803 70.6417)" style="fill:#CCD7E6;" width="45.299" height="18.758"/>
			<rect x="360.865" y="204.628" style="fill:#E1E9F5;" width="45.299" height="18.757"/>
			
				<rect x="362.694" y="209.178" transform="matrix(0.9969 0.0786 -0.0786 0.9969 18.2537 -29.49)" style="fill:#FFFFFF;" width="42.344" height="16.065"/>
			<path style="fill:#6F7082;" d="M394.787,208.582l-4.365,4.365c-0.633,0.633-1.492,0.989-2.388,0.989h-28.894
				c-1.865,0-3.377,1.512-3.377,3.377v25.068c0,1.865,1.512,3.377,3.377,3.377h50.005c1.865,0,3.377-1.512,3.377-3.377V210.97
				c0-1.865-1.512-3.377-3.377-3.377h-11.97C396.28,207.593,395.421,207.949,394.787,208.582z"/>
		</g>
		<path style="fill:#42444F;" d="M370.025,355.293c0.249-1.315,0.385-2.669,0.385-4.057s-0.136-2.742-0.385-4.056h-3.527
			c-0.716,0-0.97-0.948-0.35-1.306l3.055-1.766c-0.908-2.603-2.298-4.978-4.065-7.021l-3.215,1.858
			c-0.618,0.357-1.311-0.332-0.958-0.952l1.837-3.228c-2.054-1.753-4.439-3.126-7.049-4.016l-1.624,2.855
			c-0.355,0.624-1.308,0.372-1.308-0.346v-3.283c-1.314-0.249-2.669-0.385-4.056-0.385c-1.387,0-2.742,0.136-4.057,0.385v3.527
			c0,0.716-0.948,0.97-1.306,0.35l-1.766-3.055c-2.603,0.908-4.978,2.298-7.021,4.065l1.858,3.215
			c0.357,0.618-0.332,1.311-0.952,0.958l-3.228-1.837c-1.752,2.054-3.126,4.439-4.016,7.049l2.854,1.624
			c0.624,0.355,0.372,1.308-0.346,1.308h-3.283c-0.249,1.315-0.385,2.669-0.385,4.056s0.136,2.742,0.385,4.057h3.527
			c0.716,0,0.97,0.948,0.35,1.306l-3.055,1.766c0.908,2.603,2.298,4.978,4.065,7.021l3.215-1.858
			c0.618-0.357,1.312,0.332,0.959,0.952l-1.837,3.228c2.054,1.753,4.439,3.126,7.049,4.016l1.624-2.855
			c0.355-0.624,1.308-0.372,1.308,0.346v3.283c1.315,0.249,2.67,0.385,4.057,0.385c1.387,0,2.742-0.136,4.056-0.385v-3.526
			c0-0.716,0.948-0.97,1.306-0.35l1.766,3.055c2.603-0.908,4.978-2.298,7.021-4.065l-1.858-3.215
			c-0.357-0.618,0.332-1.311,0.952-0.958l3.228,1.837c1.752-2.054,3.126-4.439,4.016-7.049l-2.854-1.624
			c-0.624-0.355-0.372-1.308,0.346-1.308H370.025z M349.393,360.91c-5.85,0.37-10.674-4.453-10.304-10.303
			c0.305-4.825,4.22-8.74,9.044-9.044c5.85-0.37,10.673,4.453,10.304,10.304C358.132,356.691,354.218,360.605,349.393,360.91z"/>
		<text transform="matrix(1 0 0 1 184.1973 80.75)" style="fill:#42444F; font-family:'Montserrat-Black'; font-size:27.9771px;">cms</text>
		<g>
			<polygon style="fill:#42444F;" points="389.238,280.314 408.61,308.331 412.3,292.956 425.297,283.561 			"/>
			<g>
				<path style="fill:#42444F;" d="M431.869,294.101h-12.111c-0.424,0-0.771-0.347-0.771-0.771l0,0c0-0.424,0.347-0.771,0.771-0.771
					h12.111c0.424,0,0.771,0.347,0.771,0.771l0,0C432.64,293.754,432.293,294.101,431.869,294.101z"/>
				<path style="fill:#42444F;" d="M433.872,299.999h-14.114c-0.424,0-0.771-0.347-0.771-0.771l0,0c0-0.424,0.347-0.771,0.771-0.771
					h14.114c0.424,0,0.771,0.347,0.771,0.771l0,0C434.644,299.652,434.297,299.999,433.872,299.999z"/>
				<path style="fill:#42444F;" d="M426.958,305.377h-12.111c-0.424,0-0.771-0.347-0.771-0.771l0,0c0-0.424,0.347-0.771,0.771-0.771
					h12.111c0.424,0,0.771,0.347,0.771,0.771l0,0C427.73,305.03,427.383,305.377,426.958,305.377z"/>
				<path style="fill:#42444F;" d="M437.527,305.377h-1.666c-0.424,0-0.771-0.347-0.771-0.771l0,0c0-0.424,0.347-0.771,0.771-0.771
					h1.666c0.424,0,0.772,0.347,0.772,0.771l0,0C438.298,305.03,437.951,305.377,437.527,305.377z"/>
			</g>
		</g>
		<g>
			<g>
				<g>
					<g>
						
							<line style="fill:none;stroke:#35363B;stroke-width:1.6252;stroke-linecap:round;stroke-miterlimit:10;" x1="176.793" y1="248.949" x2="176.793" y2="248.949"/>
						
							<line style="fill:none;stroke:#35363B;stroke-width:1.6252;stroke-linecap:round;stroke-miterlimit:10;stroke-dasharray:0,3.249;" x1="173.544" y1="248.949" x2="113.437" y2="248.949"/>
						
							<line style="fill:none;stroke:#35363B;stroke-width:1.6252;stroke-linecap:round;stroke-miterlimit:10;" x1="111.812" y1="248.949" x2="111.812" y2="248.949"/>
						
							<line style="fill:none;stroke:#35363B;stroke-width:1.6252;stroke-linecap:round;stroke-miterlimit:10;stroke-dasharray:0,3.249;" x1="111.812" y1="245.7" x2="111.812" y2="185.593"/>
						
							<line style="fill:none;stroke:#35363B;stroke-width:1.6252;stroke-linecap:round;stroke-miterlimit:10;" x1="111.812" y1="183.968" x2="111.812" y2="183.968"/>
						
							<line style="fill:none;stroke:#35363B;stroke-width:1.6252;stroke-linecap:round;stroke-miterlimit:10;stroke-dasharray:0,3.249;" x1="115.061" y1="183.968" x2="175.168" y2="183.968"/>
						
							<line style="fill:none;stroke:#35363B;stroke-width:1.6252;stroke-linecap:round;stroke-miterlimit:10;" x1="176.793" y1="183.968" x2="176.793" y2="183.968"/>
						
							<line style="fill:none;stroke:#35363B;stroke-width:1.6252;stroke-linecap:round;stroke-miterlimit:10;stroke-dasharray:0,3.249;" x1="176.793" y1="187.217" x2="176.793" y2="247.325"/>
					</g>
				</g>
				<g>
					<g>
						<rect x="109.969" y="182.125" style="fill:#42444F;" width="3.686" height="3.686"/>
						<rect x="142.46" y="182.125" style="fill:#42444F;" width="3.686" height="3.686"/>
						<rect x="174.95" y="182.125" style="fill:#42444F;" width="3.686" height="3.686"/>
					</g>
					<g>
						<rect x="109.969" y="214.616" style="fill:#42444F;" width="3.686" height="3.686"/>
						<rect x="174.95" y="214.616" style="fill:#42444F;" width="3.686" height="3.686"/>
					</g>
					<g>
						<rect x="109.969" y="247.106" style="fill:#42444F;" width="3.686" height="3.686"/>
						<rect x="142.46" y="247.106" style="fill:#42444F;" width="3.686" height="3.686"/>
						<rect x="174.95" y="247.106" style="fill:#35363B;" width="3.686" height="3.686"/>
					</g>
				</g>
			</g>
			<path style="fill:#C9D0DB;" d="M168.497,243.927h-47.884c-1.679,0-3.04-1.361-3.04-3.04v-47.884c0-1.679,1.361-3.04,3.04-3.04
				h47.884c1.679,0,3.04,1.361,3.04,3.04v47.884C171.537,242.566,170.176,243.927,168.497,243.927z"/>
			<path style="fill:#E6EAF0;" d="M168.497,242.844h-47.884c-1.679,0-3.04-1.361-3.04-3.04V191.92c0-1.679,1.361-3.04,3.04-3.04
				h47.884c1.679,0,3.04,1.361,3.04,3.04v47.884C171.537,241.483,170.176,242.844,168.497,242.844z"/>
		</g>
		<g>
			<g>
				<rect x="370.945" y="378.586" style="fill:#42444F;" width="20.416" height="2.9"/>
				<rect x="394.105" y="378.586" style="fill:#42444F;" width="21.744" height="2.9"/>
				<rect x="417.265" y="378.586" style="fill:#42444F;" width="18.051" height="2.9"/>
				<rect x="370.945" y="396.05" style="fill:#42444F;" width="17.411" height="2.9"/>
				<rect x="390.122" y="396.05" style="fill:#42444F;" width="15.547" height="2.9"/>
				<polygon style="fill:#42444F;" points="433.939,398.891 407.086,398.95 407.086,396.05 433.939,395.991 				"/>
				<rect x="370.945" y="384.408" style="fill:#42444F;" width="10.987" height="2.9"/>
				<rect x="384.677" y="384.408" style="fill:#42444F;" width="42.797" height="2.9"/>
				<rect x="430.217" y="384.408" style="fill:#42444F;" width="6.413" height="2.9"/>
				<rect x="370.945" y="390.229" style="fill:#42444F;" width="20.416" height="2.9"/>
				<rect x="393.127" y="390.229" style="fill:#42444F;" width="17.787" height="2.9"/>
				<rect x="413.658" y="390.229" style="fill:#42444F;" width="15.398" height="2.9"/>
			</g>
			<g>
				<rect x="370.945" y="401.731" style="fill:#42444F;" width="20.416" height="2.9"/>
				<rect x="394.105" y="401.731" style="fill:#42444F;" width="21.744" height="2.9"/>
				<rect x="417.265" y="401.731" style="fill:#42444F;" width="18.051" height="2.9"/>
				<rect x="370.945" y="419.195" style="fill:#42444F;" width="17.411" height="2.9"/>
				<rect x="390.122" y="419.195" style="fill:#42444F;" width="15.547" height="2.9"/>
				<polygon style="fill:#42444F;" points="433.939,422.036 407.086,422.095 407.086,419.195 433.939,419.136 				"/>
				<rect x="370.945" y="407.553" style="fill:#42444F;" width="10.987" height="2.9"/>
				<rect x="384.677" y="407.553" style="fill:#42444F;" width="42.797" height="2.9"/>
				<rect x="430.217" y="407.553" style="fill:#42444F;" width="6.413" height="2.9"/>
				<rect x="370.945" y="413.374" style="fill:#42444F;" width="20.416" height="2.9"/>
				<rect x="393.127" y="413.374" style="fill:#42444F;" width="17.787" height="2.9"/>
				<rect x="413.658" y="413.374" style="fill:#42444F;" width="15.398" height="2.9"/>
			</g>
		</g>
		<g>
			<g>
				
					<rect x="103.224" y="405.532" transform="matrix(-0.7071 -0.7071 0.7071 -0.7071 -72.0093 792.7818)" style="fill:#42444F;" width="49.923" height="11.546"/>
				<path style="fill:#E1E9F5;" d="M101.98,393.263l4.473,4.473l8.164-8.164l-4.473-4.473c-2.254-2.254-5.91-2.254-8.164,0l0,0
					C99.726,387.353,99.726,391.009,101.98,393.263z"/>
				<polygon style="fill:#E1E9F5;" points="149.917,424.877 141.755,433.039 148.888,435.428 154.03,437.146 152.306,432.009 				
					"/>
				<polygon style="fill:#42444F;" points="152.306,432.009 148.888,435.428 154.03,437.146 				"/>
			</g>
			<path style="fill:#E1E9F5;" d="M154.03,437.146l-49.499-5.759c-1.716-0.2-3.223,1.142-3.223,2.87l0,0
				c0,1.596,1.294,2.889,2.889,2.889H154.03z"/>
		</g>
		
			<path style="fill:none;stroke:#42444F;stroke-width:1.6252;stroke-linecap:round;stroke-miterlimit:10;stroke-dasharray:0,3.2504;" d="
			M144.555,177.151v-48.41c0-3.054-1.213-5.983-3.373-8.143l-9.801-9.801c-2.16-2.16-3.373-5.089-3.373-8.143V82.299
			c0-6.36,5.156-11.516,11.516-11.516h6.008"/>
		
			<line style="fill:none;stroke:#42444F;stroke-width:1.6252;stroke-linecap:round;stroke-miterlimit:10;stroke-dasharray:0,3.2504;" x1="161.885" y1="70.783" x2="182.545" y2="70.783"/>
		<path style="fill:#42444F;" d="M90.438,231.904c-0.1-0.132,32.658-9.909,32.658-9.909s-18.215,28.929-18.315,28.797
			c-0.1-0.132-3.631-9.87-3.631-9.87l-10.973,8.333l-2.18-2.87l10.973-8.333C98.971,238.051,90.538,232.035,90.438,231.904z"/>
		<g id="computer_keyboard_mouse_1_">
			<g>
				<g>
					<path style="fill:#42444F;" d="M322.708,442.63L322.708,442.63c-3.828,0-6.961-3.132-6.961-6.961v-10.573
						c0-3.828,3.132-6.961,6.961-6.961l0,0c3.828,0,6.961,3.132,6.961,6.961v10.573C329.669,439.498,326.536,442.63,322.708,442.63z
						"/>
					<path style="fill:#6F7082;" d="M322.708,424.349L322.708,424.349c-0.238,0-0.434-0.195-0.434-0.434v-3.233
						c0-0.239,0.195-0.434,0.434-0.434l0,0c0.239,0,0.434,0.195,0.434,0.434v3.233C323.142,424.153,322.946,424.349,322.708,424.349
						z"/>
				</g>
				<g>
					<g>
						<path style="fill:#E6EAF0;" d="M297.307,449.831h-96.429c-2.576,0-4.663-2.088-4.663-4.664v-29.569
							c0-2.576,2.088-4.663,4.663-4.663h96.429c2.576,0,4.663,2.088,4.663,4.663v29.569
							C301.97,447.743,299.882,449.831,297.307,449.831z"/>
						<rect x="205.844" y="413.712" style="fill:#6F7082;" width="5.85" height="5.85"/>
						<g>
							<rect x="218.006" y="413.712" style="fill:#6F7082;" width="5.85" height="5.85"/>
							<rect x="224.779" y="413.712" style="fill:#6F7082;" width="5.85" height="5.85"/>
							<rect x="231.552" y="413.712" style="fill:#6F7082;" width="5.85" height="5.85"/>
							<rect x="238.326" y="413.712" style="fill:#6F7082;" width="5.85" height="5.85"/>
							<rect x="245.099" y="413.712" style="fill:#6F7082;" width="5.85" height="5.85"/>
						</g>
						<g>
							<rect x="258.338" y="413.712" style="fill:#6F7082;" width="5.85" height="5.85"/>
							<rect x="265.111" y="413.712" style="fill:#6F7082;" width="5.85" height="5.85"/>
							<rect x="271.884" y="413.712" style="fill:#6F7082;" width="5.85" height="5.85"/>
							<rect x="278.658" y="413.712" style="fill:#6F7082;" width="5.85" height="5.85"/>
							<rect x="285.431" y="413.712" style="fill:#6F7082;" width="5.85" height="5.85"/>
						</g>
						<g>
							<rect x="198.763" y="422.743" style="fill:#6F7082;" width="5.952" height="5.952"/>
							<rect x="206.665" y="422.743" style="fill:#6F7082;" width="5.952" height="5.952"/>
							<rect x="214.568" y="422.743" style="fill:#6F7082;" width="5.952" height="5.952"/>
							<rect x="222.47" y="422.743" style="fill:#6F7082;" width="5.952" height="5.952"/>
							<rect x="230.372" y="422.743" style="fill:#6F7082;" width="5.952" height="5.952"/>
							<rect x="238.274" y="422.743" style="fill:#6F7082;" width="5.952" height="5.952"/>
							<rect x="246.177" y="422.743" style="fill:#6F7082;" width="5.952" height="5.952"/>
							<rect x="254.079" y="422.743" style="fill:#6F7082;" width="5.952" height="5.952"/>
							<rect x="261.981" y="422.743" style="fill:#6F7082;" width="5.952" height="5.952"/>
							<rect x="269.883" y="422.743" style="fill:#6F7082;" width="5.952" height="5.952"/>
							<rect x="277.785" y="422.743" style="fill:#6F7082;" width="5.952" height="5.952"/>
							<rect x="285.688" y="422.743" style="fill:#6F7082;" width="5.952" height="5.952"/>
							<rect x="293.59" y="422.743" style="fill:#6F7082;" width="5.952" height="5.952"/>
						</g>
						<g>
							<rect x="198.763" y="437.521" style="fill:#6F7082;" width="5.952" height="5.952"/>
							<rect x="206.665" y="437.521" style="fill:#6F7082;" width="5.952" height="5.952"/>
							<rect x="214.568" y="437.521" style="fill:#6F7082;" width="37.664" height="5.952"/>
							<rect x="254.079" y="437.521" style="fill:#6F7082;" width="5.952" height="5.952"/>
							<rect x="261.981" y="437.521" style="fill:#6F7082;" width="5.952" height="5.952"/>
							<rect x="269.883" y="437.521" style="fill:#6F7082;" width="5.952" height="5.952"/>
							<rect x="277.785" y="437.521" style="fill:#6F7082;" width="5.952" height="5.952"/>
							<rect x="285.688" y="437.521" style="fill:#6F7082;" width="5.952" height="5.952"/>
							<rect x="293.59" y="437.521" style="fill:#6F7082;" width="5.952" height="5.952"/>
						</g>
						<g>
							<rect x="202.56" y="430.234" style="fill:#6F7082;" width="5.952" height="5.952"/>
							<rect x="210.462" y="430.234" style="fill:#6F7082;" width="5.952" height="5.952"/>
							<rect x="218.365" y="430.234" style="fill:#6F7082;" width="5.952" height="5.952"/>
							<rect x="226.267" y="430.234" style="fill:#6F7082;" width="5.952" height="5.952"/>
							<rect x="234.169" y="430.234" style="fill:#6F7082;" width="5.952" height="5.952"/>
							<rect x="242.071" y="430.234" style="fill:#6F7082;" width="5.952" height="5.952"/>
							<rect x="249.974" y="430.234" style="fill:#6F7082;" width="5.952" height="5.952"/>
							<rect x="257.876" y="430.234" style="fill:#6F7082;" width="5.952" height="5.952"/>
							<rect x="265.778" y="430.234" style="fill:#6F7082;" width="5.952" height="5.952"/>
							<rect x="273.68" y="430.234" style="fill:#6F7082;" width="5.952" height="5.952"/>
							<rect x="281.583" y="430.234" style="fill:#6F7082;" width="5.952" height="5.952"/>
							<rect x="289.485" y="430.234" style="fill:#6F7082;" width="5.952" height="5.952"/>
						</g>
					</g>
					<circle style="fill:#35363B;" cx="298.023" cy="415.072" r="1.414"/>
				</g>
			</g>
		</g>
		<g>
			
				<ellipse transform="matrix(0.3827 -0.9239 0.9239 0.3827 -69.5148 158.6138)" style="fill:none;stroke:#E6EAF0;stroke-width:1.0835;stroke-miterlimit:10;" cx="83.934" cy="131.325" rx="4.459" ry="4.459"/>
			<path style="fill:#E6EAF0;" d="M60.422,213.615c0,1.119-0.907,2.027-2.027,2.027c-1.119,0-2.027-0.908-2.027-2.027
				s0.908-2.027,2.027-2.027C59.515,211.589,60.422,212.496,60.422,213.615z"/>
			<path style="fill:#E6EAF0;" d="M91.23,357.522c0,2.015-1.633,3.648-3.648,3.648c-2.015,0-3.648-1.633-3.648-3.648
				s1.633-3.648,3.648-3.648C89.597,353.874,91.23,355.507,91.23,357.522z"/>
			<path style="fill:none;stroke:#E6EAF0;stroke-width:1.0835;stroke-miterlimit:10;" d="M450.216,157.639
				c0,1.757-1.424,3.181-3.181,3.181c-1.757,0-3.181-1.424-3.181-3.181c0-1.757,1.424-3.182,3.181-3.182
				C448.791,154.458,450.216,155.882,450.216,157.639z"/>
			<circle style="fill:#E6EAF0;" cx="444.535" cy="254.673" r="2.045"/>
			<path style="fill:#E6EAF0;" d="M369.771,289.668c0,1.632-1.323,2.954-2.954,2.954c-1.632,0-2.954-1.323-2.954-2.954
				c0-1.632,1.323-2.954,2.954-2.954C368.449,286.714,369.771,288.037,369.771,289.668z"/>
			<circle style="fill:#E6EAF0;" cx="455.901" cy="347.689" r="2.5"/>
			<path style="fill:#E6EAF0;" d="M347.501,405.79c0,1.255-1.017,2.272-2.272,2.272c-1.255,0-2.272-1.017-2.272-2.272
				c0-1.255,1.017-2.272,2.272-2.272C346.484,403.518,347.501,404.535,347.501,405.79z"/>
			<path style="fill:none;stroke:#E6EAF0;stroke-width:1.0835;stroke-miterlimit:10;" d="M182.977,403.29
				c0,2.134-1.73,3.863-3.863,3.863c-2.133,0-3.863-1.73-3.863-3.863c0-2.133,1.73-3.863,3.863-3.863
				C181.247,399.427,182.977,401.157,182.977,403.29z"/>
			<path style="fill:#E6EAF0;" d="M246.615,99.374c0,1.004-0.814,1.818-1.818,1.818c-1.004,0-1.818-0.814-1.818-1.818
				s0.814-1.818,1.818-1.818C245.801,97.556,246.615,98.37,246.615,99.374z"/>
			<g id="_x30__26_">
				<g>
					<path style="fill:#E6EAF0;" d="M391.911,345.215L391.911,345.215c0,3.125,2.533,5.658,5.658,5.658h20.409
						c1.18,0,2.137,0.957,2.137,2.137l0,0c0,1.18-0.957,2.137-2.137,2.137h-3.006c-2.038,0-3.69,1.652-3.69,3.69v0.195
						c0,2.038,1.652,3.69,3.69,3.69h39.74c2.038,0,3.69-1.652,3.69-3.69l0,0c0-2.038-1.652-3.69-3.69-3.69h-27.1
						c-1.18,0-2.137-0.957-2.137-2.137v-0.195c0-1.18,0.957-2.137,2.137-2.137h11.508c3.125,0,5.658-2.533,5.658-5.658l0,0
						c0-3.125-2.533-5.658-5.658-5.658h-41.55C394.444,339.557,391.911,342.09,391.911,345.215z"/>
				</g>
			</g>
			<g id="_x30__27_">
				<g>
					<path style="fill:#E6EAF0;" d="M95.91,169.017H70.446c-1.443,0-2.623-1.18-2.623-2.623l0,0c0-1.442,1.18-2.623,2.623-2.623
						H95.91c1.442,0,2.623,1.18,2.623,2.623l0,0C98.533,167.836,97.352,169.017,95.91,169.017z"/>
					<path style="fill:#E6EAF0;" d="M108.022,169.017h-2.957c-1.442,0-2.623-1.18-2.623-2.623l0,0c0-1.442,1.18-2.623,2.623-2.623
						h2.957c1.442,0,2.623,1.18,2.623,2.623l0,0C110.645,167.836,109.465,169.017,108.022,169.017z"/>
					<path style="fill:#E6EAF0;" d="M122.951,169.017h-0.528c-1.442,0-2.623-1.18-2.623-2.623l0,0c0-1.442,1.18-2.623,2.623-2.623
						h0.528c1.443,0,2.623,1.18,2.623,2.623l0,0C125.574,167.836,124.394,169.017,122.951,169.017z"/>
				</g>
			</g>
			<g id="_x30__28_">
				<g>
					<path style="fill:#E6EAF0;" d="M385.625,453.213h-25.464c-1.443,0-2.623-1.18-2.623-2.623v0c0-1.442,1.18-2.623,2.623-2.623
						h25.464c1.442,0,2.623,1.18,2.623,2.623v0C388.247,452.033,387.067,453.213,385.625,453.213z"/>
					<path style="fill:#E6EAF0;" d="M397.737,453.213h-2.957c-1.443,0-2.623-1.18-2.623-2.623v0c0-1.442,1.18-2.623,2.623-2.623
						h2.957c1.443,0,2.623,1.18,2.623,2.623v0C400.359,452.033,399.179,453.213,397.737,453.213z"/>
					<path style="fill:#E6EAF0;" d="M412.666,453.213h-0.528c-1.443,0-2.623-1.18-2.623-2.623v0c0-1.442,1.18-2.623,2.623-2.623
						h0.528c1.442,0,2.623,1.18,2.623,2.623v0C415.289,452.033,414.108,453.213,412.666,453.213z"/>
				</g>
			</g>
		</g>
		<g id="cloud_13_">
			<path style="fill:#42444F;" d="M332.662,88.994c-0.627,0-1.225,0.113-1.785,0.31c-0.577-2.874-2.57-5.232-5.22-6.323
				c0.103-0.804,0.161-1.622,0.161-2.454c0-10.605-8.597-19.201-19.201-19.201c-9.598,0-17.55,7.042-18.974,16.241
				c-0.786-0.174-1.602-0.269-2.44-0.269c-6.194,0-11.216,5.021-11.216,11.216s5.021,11.216,11.216,11.216h47.459
				c2.964,0,5.367-2.403,5.367-5.367C338.029,91.397,335.626,88.994,332.662,88.994z"/>
		</g>
	</g>
</g>
</svg>
